<?xml version="1.0" encoding="UTF-8" standalone="no"?>
<!-- Created with Inkscape (http://www.inkscape.org/) -->

<svg xmlns:dc="http://purl.org/dc/elements/1.1/" xmlns:cc="http://creativecommons.org/ns#" xmlns:rdf="http://www.w3.org/1999/02/22-rdf-syntax-ns#" xmlns:svg="http://www.w3.org/2000/svg" xmlns="http://www.w3.org/2000/svg" xmlns:xlink="http://www.w3.org/1999/xlink" xmlns:sodipodi="http://sodipodi.sourceforge.net/DTD/sodipodi-0.dtd" xmlns:inkscape="http://www.inkscape.org/namespaces/inkscape" width="48px" height="48px" id="svg1256" sodipodi:version="0.32" inkscape:version="0.48.2 r9819" sodipodi:docname="wiki.svg" inkscape:output_extension="org.inkscape.output.svg.inkscape" version="1.1">
    <defs id="defs3">
        <linearGradient id="linearGradient12512">
            <stop style="stop-color:#ffffff;stop-opacity:1.0000000;" offset="0.0000000" id="stop12513" />
            <stop style="stop-color:#fff520;stop-opacity:0.89108908;" offset="0.50000000" id="stop12517" />
            <stop style="stop-color:#fff300;stop-opacity:0.0000000;" offset="1.0000000" id="stop12514" />
        </linearGradient>
        <radialGradient inkscape:collect="always" xlink:href="#linearGradient12512" id="radialGradient278" gradientUnits="userSpaceOnUse" cx="55.000000" cy="125.00000" fx="55.000000" fy="125.00000" r="14.375000" />
        <linearGradient inkscape:collect="always" id="linearGradient21644">
            <stop style="stop-color:#000000;stop-opacity:1;" offset="0" id="stop21646" />
            <stop style="stop-color:#000000;stop-opacity:0;" offset="1" id="stop21648" />
        </linearGradient>
        <linearGradient inkscape:collect="always" id="linearGradient2116">
            <stop style="stop-color:#ffffff;stop-opacity:1;" offset="0" id="stop2118" />
            <stop style="stop-color:#ffffff;stop-opacity:0;" offset="1" id="stop2120" />
        </linearGradient>
        <linearGradient id="linearGradient2094">
            <stop style="stop-color:#d6e3f0;stop-opacity:1.0000000;" offset="0.0000000" id="stop2096" />
            <stop style="stop-color:#95b1cf;stop-opacity:1.0000000;" offset="1.0000000" id="stop2098" />
        </linearGradient>
        <linearGradient id="linearGradient2803">
            <stop id="stop2805" offset="0" style="stop-color:#ffffff;stop-opacity:1;" />
            <stop id="stop2807" offset="1.0000000" style="stop-color:#cbcbcb;stop-opacity:1.0000000;" />
        </linearGradient>
        <linearGradient id="linearGradient2795">
            <stop id="stop2797" offset="0.0000000" style="stop-color:#000000;stop-opacity:0.068627454;" />
            <stop id="stop2799" offset="1.0000000" style="stop-color:#ffffff;stop-opacity:1.0000000;" />
        </linearGradient>
        <linearGradient gradientUnits="userSpaceOnUse" y2="4.9530048" x2="41.219128" y1="4.9530050" x1="35.433035" gradientTransform="matrix(0.254000,0.000000,1.822151e-16,3.759813,0.788629,0.148567)" id="linearGradient2801" xlink:href="#linearGradient2795" inkscape:collect="always" />
        <linearGradient gradientUnits="userSpaceOnUse" y2="84.287079" x2="10.219901" y1="93.338043" x1="10.496115" gradientTransform="matrix(2.262742,0.000000,0.000000,0.441942,1.000000,-0.875000)" id="linearGradient2813" xlink:href="#linearGradient2803" inkscape:collect="always" />
        <linearGradient inkscape:collect="always" xlink:href="#linearGradient2094" id="linearGradient2100" gradientTransform="matrix(0.957750,0.000000,0.000000,1.027989,1.000000,-0.571911)" x1="6.5871811" y1="22.132999" x2="14.511404" y2="22.132999" gradientUnits="userSpaceOnUse" />
        <linearGradient inkscape:collect="always" xlink:href="#linearGradient2116" id="linearGradient2112" gradientTransform="matrix(1.025428,0.000000,0.000000,0.957303,0.000000,-0.806758)" x1="73.361984" y1="26.652197" x2="-2.7582901" y2="21.270376" gradientUnits="userSpaceOnUse" />
        <radialGradient inkscape:collect="always" xlink:href="#linearGradient21644" id="radialGradient21650" cx="25.125" cy="36.75" fx="25.125" fy="36.75" r="15.75" gradientTransform="matrix(1.000000,0.000000,0.000000,0.595238,-6.245005e-16,14.87500)" gradientUnits="userSpaceOnUse" />
        <linearGradient id="SVGID_1_" gradientUnits="userSpaceOnUse" x1="352.03909" y1="551.625" x2="352.04929" y2="585.61908" gradientTransform="translate(-329.6602,-546.96)">
            <stop offset="0" style="stop-color:#0074D3" id="stop3123" />
            <stop offset="1" style="stop-color:#093968" id="stop3125" />
        </linearGradient>
        <linearGradient id="SVGID_2_" gradientUnits="userSpaceOnUse" x1="363.89841" y1="572.31348" x2="364.65781" y2="579.72089" gradientTransform="translate(-329.6602,-546.96)">
            <stop offset="0" style="stop-color:#FCE8E8" id="stop3136" />
            <stop offset="1" style="stop-color:#C9CFCF" id="stop3138" />
        </linearGradient>
        <linearGradient id="SVGID_3_" gradientUnits="userSpaceOnUse" x1="363.89841" y1="563.63281" x2="364.65799" y2="571.04218" gradientTransform="translate(-329.6602,-546.96)">
            <stop offset="0" style="stop-color:#FCE8E8" id="stop3147" />
            <stop offset="1" style="stop-color:#C9CFCF" id="stop3149" />
        </linearGradient>
        <linearGradient id="SVGID_4_" gradientUnits="userSpaceOnUse" x1="363.89749" y1="554.98541" x2="364.6571" y2="562.39478" gradientTransform="translate(-329.6602,-546.96)">
            <stop offset="0" style="stop-color:#FCE8E8" id="stop3158" />
            <stop offset="1" style="stop-color:#C9CFCF" id="stop3160" />
        </linearGradient>
        <linearGradient id="SVGID_5_" gradientUnits="userSpaceOnUse" x1="1126.0781" y1="-3518.5815" x2="1123.5934" y2="-3552.6743" gradientTransform="matrix(1,-3e-4,-3e-4,-1,-1115.2585,-3513.6228)">
            <stop offset="0" style="stop-color:#3D3D3D" id="stop3165" />
            <stop offset="0.4644" style="stop-color:#313131" id="stop3167" />
            <stop offset="1" style="stop-color:#1E1E1E" id="stop3169" />
        </linearGradient>
        <linearGradient id="SVGID_6_" gradientUnits="userSpaceOnUse" x1="352.71191" y1="550.02832" x2="352.72211" y2="584.02252" gradientTransform="translate(-329.6602,-546.96)">
            <stop offset="0" style="stop-color:#0074D3" id="stop3174" />
            <stop offset="1" style="stop-color:#094D87" id="stop3176" />
        </linearGradient>
        <linearGradient id="SVGID_7_" gradientUnits="userSpaceOnUse" x1="352.3486" y1="567.30573" x2="352.3436" y2="550.54791" gradientTransform="translate(-329.6602,-546.96)">
            <stop offset="0" style="stop-color:#0074D3" id="stop3181" />
            <stop offset="1" style="stop-color:#7FFCFF" id="stop3183" />
        </linearGradient>
        <linearGradient id="SVGID_8_" gradientUnits="userSpaceOnUse" x1="1124.9014" y1="-3517.0327" x2="1124.9014" y2="-3551.0234" gradientTransform="matrix(1,-3e-4,-3e-4,-1,-1115.2585,-3513.6228)">
            <stop offset="0" style="stop-color:#3D3D3D" id="stop3188" />
            <stop offset="1" style="stop-color:#1E1E1E" id="stop3190" />
        </linearGradient>
    </defs>
    <sodipodi:namedview id="base" pagecolor="#ffffff" bordercolor="#666666" borderopacity="0.27843137" inkscape:pageopacity="0.0" inkscape:pageshadow="2" inkscape:zoom="5.6568542" inkscape:cx="20.75205" inkscape:cy="24.468855" inkscape:current-layer="layer1" showgrid="false" inkscape:grid-bbox="true" inkscape:document-units="px" inkscape:window-width="765" inkscape:window-height="582" inkscape:window-x="80" inkscape:window-y="25" fill="#ef2929" stroke="#cc0000" inkscape:showpageshadow="false" inkscape:window-maximized="0" />
    <metadata id="metadata4">
        <rdf:RDF>
            <cc:Work rdf:about="">
                <dc:format>image/svg+xml</dc:format>
                <dc:type rdf:resource="http://purl.org/dc/dcmitype/StillImage" />
                <dc:title>Addess Book</dc:title>
                <dc:date />
                <dc:creator>
                    <cc:Agent>
                        <dc:title>Jakub Steiner</dc:title>
                    </cc:Agent>
                </dc:creator>
                <dc:source>http://jimmac.musichall.cz</dc:source>
                <dc:subject>
                    <rdf:Bag>
                        <rdf:li>address</rdf:li>
                        <rdf:li>contact</rdf:li>
                        <rdf:li>book</rdf:li>
                        <rdf:li>office</rdf:li>
                    </rdf:Bag>
                </dc:subject>
                <cc:license rdf:resource="http://creativecommons.org/licenses/by-sa/2.0/" />
            </cc:Work>
            <cc:License rdf:about="http://creativecommons.org/licenses/by-sa/2.0/">
                <cc:permits rdf:resource="http://web.resource.org/cc/Reproduction" />
                <cc:permits rdf:resource="http://web.resource.org/cc/Distribution" />
                <cc:requires rdf:resource="http://web.resource.org/cc/Notice" />
                <cc:requires rdf:resource="http://web.resource.org/cc/Attribution" />
                <cc:permits rdf:resource="http://web.resource.org/cc/DerivativeWorks" />
                <cc:requires rdf:resource="http://web.resource.org/cc/ShareAlike" />
            </cc:License>
        </rdf:RDF>
    </metadata>
    <g id="layer1" inkscape:label="Layer 1" inkscape:groupmode="layer">
        <g transform="matrix(1.2490944,0,0,1.2490944,-4.2511315,-2.2842715)" id="g3114">
            <polyline style="fill:none" points="43.943,0 43.943,44 -0.057,44 -0.057,0  " id="polyline3116" />
        </g>
        <g transform="matrix(1.2490944,0,0,1.2490944,-4.2511315,-2.2842715)" id="g3118">
            <g id="g3120">
                <linearGradient id="linearGradient3496" gradientUnits="userSpaceOnUse" x1="352.03909" y1="551.625" x2="352.04929" y2="585.61908" gradientTransform="translate(-329.6602,-546.96)">
                    <stop offset="0" style="stop-color:#0074D3" id="stop3498" />
                    <stop offset="1" style="stop-color:#093968" id="stop3500" />
                </linearGradient>
                <path style="fill:url(#SVGID_1_)" inkscape:connector-curvature="0" d="m 35.635,36.701 c 0,1.104 -0.896,2 -2,2 h -22.5 c -1.104,0 -2,-0.896 -2,-2 V 6.714 c 0,-1.104 0.896,-2 2,-2 h 22.5 c 1.104,0 2,0.896 2,2 v 29.987 z" id="path3127" />
                <path style="fill:#ffffff" inkscape:connector-curvature="0" d="m 35.193,35.938 c 0,1.104 -0.896,2 -2,2 h -22.5 c -1.104,0 -2,-0.896 -2,-2 V 5.95 c 0,-1.104 0.896,-2 2,-2 h 22.5 c 1.104,0 2,0.896 2,2 v 29.988 z" id="path3129" />
                <g id="g3131">
                    <path style="fill:#c1c1c1" inkscape:connector-curvature="0" d="m 35.07,24.826 c -0.826,0 -1.5,0.673 -1.5,1.5 v 5.482 c 0,0.825 0.674,1.5 1.5,1.5" id="path3133" />
                    <linearGradient id="linearGradient3506" gradientUnits="userSpaceOnUse" x1="363.89841" y1="572.31348" x2="364.65781" y2="579.72089" gradientTransform="translate(-329.6602,-546.96)">
                        <stop offset="0" style="stop-color:#FCE8E8" id="stop3508" />
                        <stop offset="1" style="stop-color:#C9CFCF" id="stop3510" />
                    </linearGradient>
                    <path style="fill:url(#SVGID_2_)" inkscape:connector-curvature="0" d="m 35.07,32.809 c -0.551,0 -1,-0.447 -1,-1 v -5.48 c 0,-0.553 0.449,-1 1,-1" id="path3140" />
                </g>
                <g id="g3142">
                    <path style="fill:#c1c1c1" inkscape:connector-curvature="0" d="m 35.07,16.146 c -0.826,0 -1.5,0.673 -1.5,1.5 v 5.482 c 0,0.827 0.674,1.5 1.5,1.5" id="path3144" />
                    <linearGradient id="linearGradient3515" gradientUnits="userSpaceOnUse" x1="363.89841" y1="563.63281" x2="364.65799" y2="571.04218" gradientTransform="translate(-329.6602,-546.96)">
                        <stop offset="0" style="stop-color:#FCE8E8" id="stop3517" />
                        <stop offset="1" style="stop-color:#C9CFCF" id="stop3519" />
                    </linearGradient>
                    <path style="fill:url(#SVGID_3_)" inkscape:connector-curvature="0" d="m 35.07,24.129 c -0.551,0 -1,-0.447 -1,-1 v -5.482 c 0,-0.552 0.449,-1 1,-1" id="path3151" />
                </g>
                <g id="g3153">
                    <path style="fill:#c1c1c1" inkscape:connector-curvature="0" d="m 35.07,7.499 c -0.826,0 -1.5,0.673 -1.5,1.5 v 5.482 c 0,0.827 0.674,1.5 1.5,1.5" id="path3155" />
                    <linearGradient id="linearGradient3524" gradientUnits="userSpaceOnUse" x1="363.89749" y1="554.98541" x2="364.6571" y2="562.39478" gradientTransform="translate(-329.6602,-546.96)">
                        <stop offset="0" style="stop-color:#FCE8E8" id="stop3526" />
                        <stop offset="1" style="stop-color:#C9CFCF" id="stop3528" />
                    </linearGradient>
                    <path style="fill:url(#SVGID_4_)" inkscape:connector-curvature="0" d="m 35.07,15.481 c -0.551,0 -1,-0.447 -1,-1 V 8.999 c 0,-0.552 0.449,-1 1,-1" id="path3162" />
                </g>
                <linearGradient id="linearGradient3531" gradientUnits="userSpaceOnUse" x1="1126.0781" y1="-3518.5815" x2="1123.5934" y2="-3552.6743" gradientTransform="matrix(1,-3e-4,-3e-4,-1,-1115.2585,-3513.6228)">
                    <stop offset="0" style="stop-color:#3D3D3D" id="stop3533" />
                    <stop offset="0.4644" style="stop-color:#313131" id="stop3535" />
                    <stop offset="1" style="stop-color:#1E1E1E" id="stop3537" />
                </linearGradient>
                <path style="fill:url(#SVGID_5_)" inkscape:connector-curvature="0" d="M 12.88,38.641 C 11.389,38.643 9.898,38.643 8.407,38.643 8.403,27.327 8.399,16.01 8.397,4.693 c 1.364,0 2.757,0.08 4.118,-0.023 0.688,-0.052 0.355,2.872 0.355,3.414 0.001,3.416 0.002,6.832 0.003,10.248 0.003,6.77 0.005,13.539 0.007,20.309" id="path3171" />
                <linearGradient id="linearGradient3540" gradientUnits="userSpaceOnUse" x1="352.71191" y1="550.02832" x2="352.72211" y2="584.02252" gradientTransform="translate(-329.6602,-546.96)">
                    <stop offset="0" style="stop-color:#0074D3" id="stop3542" />
                    <stop offset="1" style="stop-color:#094D87" id="stop3544" />
                </linearGradient>
                <path style="fill:url(#SVGID_6_)" inkscape:connector-curvature="0" d="m 36.307,35.105 c 0,1.104 -0.896,2 -2,2 h -22.5 c -1.104,0 -2,-0.896 -2,-2 V 5.118 c 0,-1.104 0.896,-2 2,-2 h 22.5 c 1.104,0 2,0.896 2,2 v 29.987 z" id="path3178" />
                <linearGradient id="linearGradient3547" gradientUnits="userSpaceOnUse" x1="352.3486" y1="567.30573" x2="352.3436" y2="550.54791" gradientTransform="translate(-329.6602,-546.96)">
                    <stop offset="0" style="stop-color:#0074D3" id="stop3549" />
                    <stop offset="1" style="stop-color:#7FFCFF" id="stop3551" />
                </linearGradient>
                <path style="fill:url(#SVGID_7_);fill-opacity:0.7" inkscape:connector-curvature="0" d="M 35.564,20.388 V 5.804 c 0,-1.196 -0.896,-2.166 -2,-2.166 H 11.807 c -1.104,0 -2,0.97 -2,2.166 v 14.584 h 25.757 z" id="path3185" />
                <linearGradient id="linearGradient3554" gradientUnits="userSpaceOnUse" x1="1124.9014" y1="-3517.0327" x2="1124.9014" y2="-3551.0234" gradientTransform="matrix(1,-3e-4,-3e-4,-1,-1115.2585,-3513.6228)">
                    <stop offset="0" style="stop-color:#3D3D3D" id="stop3556" />
                    <stop offset="1" style="stop-color:#1E1E1E" id="stop3558" />
                </linearGradient>
                <path style="fill:url(#SVGID_8_)" inkscape:connector-curvature="0" d="m 12.991,37.105 c -1.491,0 -2.981,0.002 -4.472,0.004 C 8.517,30.227 8.513,23.344 8.51,16.461 8.509,13.046 8.509,9.631 8.508,6.216 8.508,5.746 8.15,3.164 8.851,3.137 10.219,3.084 11.61,3.16 12.98,3.159 c 0.004,11.316 0.007,22.631 0.011,33.946" id="path3192" />
                <path style="fill:#434343" inkscape:connector-curvature="0" d="m 11.222,37.105 c -0.183,0 -0.367,0.002 -0.55,0.004 C 10.669,25.793 10.665,14.476 10.661,3.16 c 0.197,0 0.552,-0.07 0.558,0.215 0.013,0.615 -0.007,1.233 -0.007,1.849 0,1.549 10e-4,3.098 10e-4,4.647 0.001,3.016 0.002,6.032 0.003,9.048 0.002,6.061 0.004,12.125 0.006,18.186" id="path3194" />
                <path inkscape:connector-curvature="0" d="m 10.916,37.105 c -0.542,0 -0.551,0.01 -0.551,-0.59 0,-0.744 0,-1.49 -10e-4,-2.233 0,-1.409 -0.001,-2.819 -0.001,-4.229 -10e-4,-2.957 -10e-4,-5.916 -0.002,-8.874 -0.001,-6.006 -0.003,-12.013 -0.005,-18.02 0.198,0 0.551,-0.069 0.557,0.216 0.012,0.615 -0.007,1.233 -0.007,1.849 0,1.549 10e-4,3.098 10e-4,4.647 10e-4,3.016 0.002,6.032 0.003,9.048 10e-4,6.063 0.004,12.125 0.006,18.186" id="path3196" />
            </g>
        </g>
    </g>
</svg>
