<?xml version="1.0" encoding="UTF-8" standalone="no"?>
<!-- Created with Inkscape (http://www.inkscape.org/) -->

<svg xmlns:dc="http://purl.org/dc/elements/1.1/" xmlns:cc="http://creativecommons.org/ns#" xmlns:rdf="http://www.w3.org/1999/02/22-rdf-syntax-ns#" xmlns:svg="http://www.w3.org/2000/svg" xmlns="http://www.w3.org/2000/svg" xmlns:xlink="http://www.w3.org/1999/xlink" xmlns:sodipodi="http://sodipodi.sourceforge.net/DTD/sodipodi-0.dtd" xmlns:inkscape="http://www.inkscape.org/namespaces/inkscape" width="260" height="64" id="svg2" version="1.1" inkscape:version="0.48.2 r9819" sodipodi:docname="wikiLogo.svg">
    <defs id="defs4">
        <radialGradient inkscape:collect="always" xlink:href="#linearGradient21644" id="radialGradient21650" cx="25.125" cy="36.75" fx="25.125" fy="36.75" r="15.75" gradientTransform="matrix(1,0,0,0.595238,0,14.875)" gradientUnits="userSpaceOnUse" />
        <linearGradient inkscape:collect="always" id="linearGradient21644">
            <stop style="stop-color:#000000;stop-opacity:1;" offset="0" id="stop21646" />
            <stop style="stop-color:#000000;stop-opacity:0;" offset="1" id="stop21648" />
        </linearGradient>
        <linearGradient id="linearGradient2803">
            <stop id="stop2805" offset="0" style="stop-color:#ffffff;stop-opacity:1;" />
            <stop id="stop2807" offset="1.0000000" style="stop-color:#cbcbcb;stop-opacity:1.0000000;" />
        </linearGradient>
        <linearGradient id="linearGradient2094">
            <stop style="stop-color:#d6e3f0;stop-opacity:1.0000000;" offset="0.0000000" id="stop2096" />
            <stop style="stop-color:#95b1cf;stop-opacity:1.0000000;" offset="1.0000000" id="stop2098" />
        </linearGradient>
        <linearGradient id="linearGradient2795">
            <stop id="stop2797" offset="0.0000000" style="stop-color:#000000;stop-opacity:0.068627454;" />
            <stop id="stop2799" offset="1.0000000" style="stop-color:#ffffff;stop-opacity:1.0000000;" />
        </linearGradient>
        <linearGradient id="SVGID_1_" gradientUnits="userSpaceOnUse" x1="352.03909" y1="551.625" x2="352.04929" y2="585.61908" gradientTransform="translate(-329.6602,-546.96)">
            <stop offset="0" style="stop-color:#0074D3" id="stop3123" />
            <stop offset="1" style="stop-color:#093968" id="stop3125" />
        </linearGradient>
        <linearGradient id="SVGID_2_" gradientUnits="userSpaceOnUse" x1="363.89841" y1="572.31348" x2="364.65781" y2="579.72089" gradientTransform="translate(-329.6602,-546.96)">
            <stop offset="0" style="stop-color:#FCE8E8" id="stop3136" />
            <stop offset="1" style="stop-color:#C9CFCF" id="stop3138" />
        </linearGradient>
        <linearGradient id="SVGID_3_" gradientUnits="userSpaceOnUse" x1="363.89841" y1="563.63281" x2="364.65799" y2="571.04218" gradientTransform="translate(-329.6602,-546.96)">
            <stop offset="0" style="stop-color:#FCE8E8" id="stop3147" />
            <stop offset="1" style="stop-color:#C9CFCF" id="stop3149" />
        </linearGradient>
        <linearGradient id="SVGID_4_" gradientUnits="userSpaceOnUse" x1="363.89749" y1="554.98541" x2="364.6571" y2="562.39478" gradientTransform="translate(-329.6602,-546.96)">
            <stop offset="0" style="stop-color:#FCE8E8" id="stop3158" />
            <stop offset="1" style="stop-color:#C9CFCF" id="stop3160" />
        </linearGradient>
        <linearGradient id="SVGID_5_" gradientUnits="userSpaceOnUse" x1="1126.0781" y1="-3518.5815" x2="1123.5934" y2="-3552.6743" gradientTransform="matrix(1,-3e-4,-3e-4,-1,-1115.2585,-3513.6228)">
            <stop offset="0" style="stop-color:#3D3D3D" id="stop3165" />
            <stop offset="0.4644" style="stop-color:#313131" id="stop3167" />
            <stop offset="1" style="stop-color:#1E1E1E" id="stop3169" />
        </linearGradient>
        <linearGradient id="SVGID_6_" gradientUnits="userSpaceOnUse" x1="352.71191" y1="550.02832" x2="352.72211" y2="584.02252" gradientTransform="translate(-329.6602,-546.96)">
            <stop offset="0" style="stop-color:#0074D3" id="stop3174" />
            <stop offset="1" style="stop-color:#094D87" id="stop3176" />
        </linearGradient>
        <linearGradient id="SVGID_7_" gradientUnits="userSpaceOnUse" x1="352.3486" y1="567.30573" x2="352.3436" y2="550.54791" gradientTransform="translate(-329.6602,-546.96)">
            <stop offset="0" style="stop-color:#0074D3" id="stop3181" />
            <stop offset="1" style="stop-color:#7FFCFF" id="stop3183" />
        </linearGradient>
        <linearGradient id="SVGID_8_" gradientUnits="userSpaceOnUse" x1="1124.9014" y1="-3517.0327" x2="1124.9014" y2="-3551.0234" gradientTransform="matrix(1,-3e-4,-3e-4,-1,-1115.2585,-3513.6228)">
            <stop offset="0" style="stop-color:#3D3D3D" id="stop3188" />
            <stop offset="1" style="stop-color:#1E1E1E" id="stop3190" />
        </linearGradient>
    </defs>
    <sodipodi:namedview id="base" pagecolor="#ffffff" bordercolor="#666666" borderopacity="1.0" inkscape:pageopacity="0.0" inkscape:pageshadow="2" inkscape:zoom="3.959798" inkscape:cx="159.60079" inkscape:cy="44.08935" inkscape:document-units="px" inkscape:current-layer="layer1" showgrid="false" inkscape:window-width="1491" inkscape:window-height="803" inkscape:window-x="54" inkscape:window-y="118" inkscape:window-maximized="0" />
    <metadata id="metadata7">
        <rdf:RDF>
            <cc:Work rdf:about="">
                <dc:format>image/svg+xml</dc:format>
                <dc:type rdf:resource="http://purl.org/dc/dcmitype/StillImage" />
                <dc:title />
            </cc:Work>
        </rdf:RDF>
    </metadata>
    <g inkscape:label="Ebene 1" inkscape:groupmode="layer" id="layer1" transform="translate(0,-988.36217)">
        <text xml:space="preserve" style="font-size:40px;font-style:normal;font-weight:normal;line-height:125%;letter-spacing:0px;word-spacing:0px;fill:#ffffff;fill-opacity:1;stroke:none;font-family:Sans" x="60.861691" y="1034.1794" id="text3215" sodipodi:linespacing="125%"><tspan sodipodi:role="line" id="tspan3217" x="60.861691" y="1034.1794" style="font-size:32px;font-family:Patinio Basica;-inkscape-font-specification:Patinio Basica;fill:#ffffff;font-weight:normal;font-style:normal;font-stretch:normal;font-variant:normal">WoltNet - Wiki</tspan></text>
        <g transform="matrix(1.4935973,0,0,1.4935973,-1.459276,990.46114)" id="g3114">
            <polyline style="fill:none" points="43.943,0 43.943,44 -0.057,44 -0.057,0  " id="polyline3116" />
        </g>
        <g transform="matrix(1.4935973,0,0,1.4935973,-1.459276,990.46114)" id="g3118">
            <g id="g3120">
                <linearGradient id="linearGradient3243" gradientUnits="userSpaceOnUse" x1="352.03909" y1="551.625" x2="352.04929" y2="585.61908" gradientTransform="translate(-329.6602,-546.96)">
                    <stop offset="0" style="stop-color:#0074D3" id="stop3245" />
                    <stop offset="1" style="stop-color:#093968" id="stop3247" />
                </linearGradient>
                <path style="fill:url(#SVGID_1_)" inkscape:connector-curvature="0" d="m 35.635,36.701 c 0,1.104 -0.896,2 -2,2 h -22.5 c -1.104,0 -2,-0.896 -2,-2 V 6.714 c 0,-1.104 0.896,-2 2,-2 h 22.5 c 1.104,0 2,0.896 2,2 v 29.987 z" id="path3127" />
                <path style="fill:#ffffff" inkscape:connector-curvature="0" d="m 35.193,35.938 c 0,1.104 -0.896,2 -2,2 h -22.5 c -1.104,0 -2,-0.896 -2,-2 V 5.95 c 0,-1.104 0.896,-2 2,-2 h 22.5 c 1.104,0 2,0.896 2,2 v 29.988 z" id="path3129" />
                <g id="g3131">
                    <path style="fill:#c1c1c1" inkscape:connector-curvature="0" d="m 35.07,24.826 c -0.826,0 -1.5,0.673 -1.5,1.5 v 5.482 c 0,0.825 0.674,1.5 1.5,1.5" id="path3133" />
                    <linearGradient id="linearGradient3253" gradientUnits="userSpaceOnUse" x1="363.89841" y1="572.31348" x2="364.65781" y2="579.72089" gradientTransform="translate(-329.6602,-546.96)">
                        <stop offset="0" style="stop-color:#FCE8E8" id="stop3255" />
                        <stop offset="1" style="stop-color:#C9CFCF" id="stop3257" />
                    </linearGradient>
                    <path style="fill:url(#SVGID_2_)" inkscape:connector-curvature="0" d="m 35.07,32.809 c -0.551,0 -1,-0.447 -1,-1 v -5.48 c 0,-0.553 0.449,-1 1,-1" id="path3140" />
                </g>
                <g id="g3142">
                    <path style="fill:#c1c1c1" inkscape:connector-curvature="0" d="m 35.07,16.146 c -0.826,0 -1.5,0.673 -1.5,1.5 v 5.482 c 0,0.827 0.674,1.5 1.5,1.5" id="path3144" />
                    <linearGradient id="linearGradient3262" gradientUnits="userSpaceOnUse" x1="363.89841" y1="563.63281" x2="364.65799" y2="571.04218" gradientTransform="translate(-329.6602,-546.96)">
                        <stop offset="0" style="stop-color:#FCE8E8" id="stop3264" />
                        <stop offset="1" style="stop-color:#C9CFCF" id="stop3266" />
                    </linearGradient>
                    <path style="fill:url(#SVGID_3_)" inkscape:connector-curvature="0" d="m 35.07,24.129 c -0.551,0 -1,-0.447 -1,-1 v -5.482 c 0,-0.552 0.449,-1 1,-1" id="path3151" />
                </g>
                <g id="g3153">
                    <path style="fill:#c1c1c1" inkscape:connector-curvature="0" d="m 35.07,7.499 c -0.826,0 -1.5,0.673 -1.5,1.5 v 5.482 c 0,0.827 0.674,1.5 1.5,1.5" id="path3155" />
                    <linearGradient id="linearGradient3271" gradientUnits="userSpaceOnUse" x1="363.89749" y1="554.98541" x2="364.6571" y2="562.39478" gradientTransform="translate(-329.6602,-546.96)">
                        <stop offset="0" style="stop-color:#FCE8E8" id="stop3273" />
                        <stop offset="1" style="stop-color:#C9CFCF" id="stop3275" />
                    </linearGradient>
                    <path style="fill:url(#SVGID_4_)" inkscape:connector-curvature="0" d="m 35.07,15.481 c -0.551,0 -1,-0.447 -1,-1 V 8.999 c 0,-0.552 0.449,-1 1,-1" id="path3162" />
                </g>
                <linearGradient id="linearGradient3278" gradientUnits="userSpaceOnUse" x1="1126.0781" y1="-3518.5815" x2="1123.5934" y2="-3552.6743" gradientTransform="matrix(1,-3e-4,-3e-4,-1,-1115.2585,-3513.6228)">
                    <stop offset="0" style="stop-color:#3D3D3D" id="stop3280" />
                    <stop offset="0.4644" style="stop-color:#313131" id="stop3282" />
                    <stop offset="1" style="stop-color:#1E1E1E" id="stop3284" />
                </linearGradient>
                <path style="fill:url(#SVGID_5_)" inkscape:connector-curvature="0" d="M 12.88,38.641 C 11.389,38.643 9.898,38.643 8.407,38.643 8.403,27.327 8.399,16.01 8.397,4.693 c 1.364,0 2.757,0.08 4.118,-0.023 0.688,-0.052 0.355,2.872 0.355,3.414 0.001,3.416 0.002,6.832 0.003,10.248 0.003,6.77 0.005,13.539 0.007,20.309" id="path3171" />
                <linearGradient id="linearGradient3287" gradientUnits="userSpaceOnUse" x1="352.71191" y1="550.02832" x2="352.72211" y2="584.02252" gradientTransform="translate(-329.6602,-546.96)">
                    <stop offset="0" style="stop-color:#0074D3" id="stop3289" />
                    <stop offset="1" style="stop-color:#094D87" id="stop3291" />
                </linearGradient>
                <path style="fill:url(#SVGID_6_)" inkscape:connector-curvature="0" d="m 36.307,35.105 c 0,1.104 -0.896,2 -2,2 h -22.5 c -1.104,0 -2,-0.896 -2,-2 V 5.118 c 0,-1.104 0.896,-2 2,-2 h 22.5 c 1.104,0 2,0.896 2,2 v 29.987 z" id="path3178" />
                <linearGradient id="linearGradient3294" gradientUnits="userSpaceOnUse" x1="352.3486" y1="567.30573" x2="352.3436" y2="550.54791" gradientTransform="translate(-329.6602,-546.96)">
                    <stop offset="0" style="stop-color:#0074D3" id="stop3296" />
                    <stop offset="1" style="stop-color:#7FFCFF" id="stop3298" />
                </linearGradient>
                <path style="fill:url(#SVGID_7_);fill-opacity:0.7" inkscape:connector-curvature="0" d="M 35.564,20.388 V 5.804 c 0,-1.196 -0.896,-2.166 -2,-2.166 H 11.807 c -1.104,0 -2,0.97 -2,2.166 v 14.584 h 25.757 z" id="path3185" />
                <linearGradient id="linearGradient3301" gradientUnits="userSpaceOnUse" x1="1124.9014" y1="-3517.0327" x2="1124.9014" y2="-3551.0234" gradientTransform="matrix(1,-3e-4,-3e-4,-1,-1115.2585,-3513.6228)">
                    <stop offset="0" style="stop-color:#3D3D3D" id="stop3303" />
                    <stop offset="1" style="stop-color:#1E1E1E" id="stop3305" />
                </linearGradient>
                <path style="fill:url(#SVGID_8_)" inkscape:connector-curvature="0" d="m 12.991,37.105 c -1.491,0 -2.981,0.002 -4.472,0.004 C 8.517,30.227 8.513,23.344 8.51,16.461 8.509,13.046 8.509,9.631 8.508,6.216 8.508,5.746 8.15,3.164 8.851,3.137 10.219,3.084 11.61,3.16 12.98,3.159 c 0.004,11.316 0.007,22.631 0.011,33.946" id="path3192" />
                <path style="fill:#434343" inkscape:connector-curvature="0" d="m 11.222,37.105 c -0.183,0 -0.367,0.002 -0.55,0.004 C 10.669,25.793 10.665,14.476 10.661,3.16 c 0.197,0 0.552,-0.07 0.558,0.215 0.013,0.615 -0.007,1.233 -0.007,1.849 0,1.549 10e-4,3.098 10e-4,4.647 0.001,3.016 0.002,6.032 0.003,9.048 0.002,6.061 0.004,12.125 0.006,18.186" id="path3194" />
                <path inkscape:connector-curvature="0" d="m 10.916,37.105 c -0.542,0 -0.551,0.01 -0.551,-0.59 0,-0.744 0,-1.49 -10e-4,-2.233 0,-1.409 -0.001,-2.819 -0.001,-4.229 -10e-4,-2.957 -10e-4,-5.916 -0.002,-8.874 -0.001,-6.006 -0.003,-12.013 -0.005,-18.02 0.198,0 0.551,-0.069 0.557,0.216 0.012,0.615 -0.007,1.233 -0.007,1.849 0,1.549 10e-4,3.098 10e-4,4.647 10e-4,3.016 0.002,6.032 0.003,9.048 10e-4,6.063 0.004,12.125 0.006,18.186" id="path3196" />
            </g>
        </g>
    </g>
</svg>
